<?xml version="1.0" encoding="UTF-8"?>
<svg xmlns="http://www.w3.org/2000/svg" xmlns:xlink="http://www.w3.org/1999/xlink" width="30px" height="30px" viewBox="0 0 30 30" version="1.1">
<g id="surface1">
<path style=" stroke:none;fill-rule:nonzero;fill:rgb(0%,0%,0%);fill-opacity:1;" d="M 25.558594 10.449219 C 25.117188 10.171875 24.535156 10.308594 24.261719 10.75 C 23.984375 11.191406 24.121094 11.769531 24.5625 12.046875 C 25.585938 12.6875 26.199219 13.789062 26.199219 15 C 26.199219 16.210938 25.585938 17.3125 24.5625 17.953125 L 9.125 27.578125 C 8.035156 28.257812 6.714844 28.292969 5.59375 27.667969 C 4.46875 27.046875 3.800781 25.910156 3.800781 24.625 L 3.800781 5.375 C 3.800781 4.089844 4.46875 2.953125 5.59375 2.332031 C 6.714844 1.707031 8.035156 1.742188 9.125 2.421875 L 18.109375 8.023438 C 18.550781 8.296875 19.132812 8.164062 19.40625 7.722656 C 19.683594 7.28125 19.546875 6.703125 19.105469 6.425781 L 10.121094 0.824219 C 8.441406 -0.222656 6.40625 -0.273438 4.679688 0.683594 C 2.949219 1.644531 1.917969 3.398438 1.917969 5.375 L 1.917969 24.625 C 1.917969 26.601562 2.949219 28.355469 4.679688 29.316406 C 5.503906 29.773438 6.394531 30 7.285156 30 C 8.265625 30 9.242188 29.726562 10.121094 29.175781 L 25.558594 19.550781 C 27.136719 18.566406 28.082031 16.863281 28.082031 15 C 28.082031 13.136719 27.136719 11.433594 25.558594 10.449219 Z M 25.558594 10.449219 "/>
</g>
</svg>
